# Blender v2.79 (sub 0) OBJ File: ''
# www.blender.org
v 0.128781 1.067856 -0.170313
v 0.128781 0.925816 -0.449081
v 0.128781 0.704584 -0.670313
v 0.128781 -0.192218 -0.812352
v 0.128781 -0.470986 -0.670313
v 0.128781 -0.834258 -0.170313
v 0.128781 -0.883201 0.138705
v 0.310417 1.067856 -0.111296
v 0.474273 0.925816 -0.336824
v 0.604310 0.704584 -0.515804
v 0.687798 0.425816 -0.630717
v 0.716567 0.116799 -0.670313
v 0.687798 -0.192218 -0.630717
v 0.604310 -0.470986 -0.515804
v 0.474273 -0.692218 -0.336824
v 0.310417 -0.834258 -0.111296
v 0.422674 1.067856 0.043213
v 0.687798 0.925816 -0.042931
v 0.898202 0.704584 -0.111296
v 1.033290 0.425816 -0.155188
v 1.079838 0.116799 -0.170313
v 1.033290 -0.192218 -0.155188
v 0.898202 -0.470986 -0.111296
v 0.687798 -0.692218 -0.042931
v 0.422674 -0.834258 0.043213
v 0.422674 1.067856 0.234196
v 0.687798 0.925816 0.320340
v 0.898202 0.704584 0.388705
v 1.033290 0.425816 0.432597
v 1.079838 0.116799 0.447721
v 1.033290 -0.192218 0.432597
v 0.898202 -0.470986 0.388705
v 0.687798 -0.692218 0.320340
v 0.422674 -0.834258 0.234196
v 0.310417 1.067856 0.388705
v 0.474273 0.925816 0.614233
v 0.604310 0.704584 0.793213
v 0.687798 0.425816 0.908126
v 0.716567 0.116799 0.947722
v 0.687798 -0.192218 0.908126
v 0.604310 -0.470986 0.793213
v 0.474273 -0.692218 0.614233
v 0.310417 -0.834258 0.388705
v 0.128781 1.067856 0.447722
v 0.128781 0.925816 0.726490
v 0.128781 0.704584 0.947722
v 0.128781 0.425816 1.089761
v 0.128781 0.116799 1.138705
v 0.128781 -0.192218 1.089761
v 0.128781 -0.470986 0.947722
v 0.128781 -0.692218 0.726490
v 0.128781 -0.834258 0.447722
v 0.128781 1.116799 0.138705
v -0.052855 1.067856 0.388705
v -0.216711 0.925816 0.614233
v -0.346747 0.704584 0.793213
v -0.430236 0.425816 0.908126
v -0.459004 0.116799 0.947722
v -0.430236 -0.192218 0.908126
v -0.346747 -0.470986 0.793213
v -0.216711 -0.692218 0.614233
v -0.052855 -0.834258 0.388705
v -0.165112 1.067856 0.234196
v -0.430236 0.925816 0.320340
v -0.640640 0.704584 0.388705
v -0.775728 0.425816 0.432597
v -0.822276 0.116799 0.447722
v -0.775728 -0.192218 0.432597
v -0.640640 -0.470986 0.388705
v -0.430236 -0.692218 0.320340
v -0.165112 -0.834258 0.234196
v -0.165112 1.067856 0.043213
v -0.430236 0.925816 -0.042931
v -0.640640 0.704584 -0.111296
v -0.775728 0.425816 -0.155188
v -0.822276 0.116799 -0.170312
v -0.775728 -0.192218 -0.155188
v -0.640640 -0.470986 -0.111296
v -0.430236 -0.692218 -0.042931
v -0.165112 -0.834258 0.043213
v -0.052855 1.067856 -0.111296
v -0.216711 0.925816 -0.336824
v -0.346747 0.704584 -0.515804
v -0.430236 0.425816 -0.630717
v -0.459004 0.116799 -0.670313
v -0.430236 -0.192218 -0.630717
v -0.346747 -0.470986 -0.515804
v -0.216711 -0.692218 -0.336824
v -0.052855 -0.834258 -0.111296
v 0.128781 0.425816 -0.812352
v 0.128781 0.116799 -0.861296
v 0.128781 -0.692218 -0.449081
vt 0.570757 0.664611
vt 0.630403 0.794152
vt 0.576109 0.819028
vt 0.441427 0.250148
vt 0.482675 0.327448
vt 0.445136 0.345696
vt 0.315201 0.682086
vt 0.377174 0.846219
vt 0.320553 0.836503
vt 0.511528 0.837032
vt 0.505236 0.655504
vt 0.067230 0.327448
vt 0.101060 0.250148
vt 0.104770 0.345696
vt 0.570947 0.452522
vt 0.455901 0.431891
vt 0.527305 0.397181
vt 0.442979 0.846401
vt 0.436364 0.655531
vt 0.115534 0.431891
vt 0.044130 0.397181
vt 0.370882 0.664691
vt 0.407597 0.327448
vt 0.726961 0.540353
vt 0.732723 0.707189
vt 0.675555 0.602343
vt 0.590121 0.943292
vt 0.528000 0.983113
vt 0.142309 0.327448
vt 0.676294 0.756374
vt 0.634759 0.680199
vt 0.460299 1.000000
vt 0.186939 0.397181
vt 0.854609 0.629893
vt 0.794166 0.663607
vt 0.230580 0.452522
vt 0.132301 0.500296
vt 0.898282 0.810875
vt 0.835702 0.835731
vt 0.291320 0.327448
vt 0.384396 0.279674
vt 0.768055 0.853607
vt 0.340367 0.341020
vt 0.268962 0.488053
vt 0.165510 0.279674
vt 0.701964 0.862753
vt 0.908134 0.609348
vt 0.231069 0.306310
vt 0.630403 0.806346
vt 0.643898 0.862273
vt 0.231069 0.193986
vt 0.643898 0.912717
vt 0.898282 0.974115
vt 0.835702 0.990981
vt 0.291320 0.172848
vt 0.384396 0.220622
vt 0.768055 0.985670
vt 0.340367 0.159276
vt 0.165510 0.220622
vt 0.701964 0.958702
vt 0.949670 0.936722
vt 0.061973 0.983242
vt 0.121162 0.844765
vt 0.127778 1.000000
vt 0.186939 0.103115
vt 0.340367 0.193986
vt 0.407597 0.172848
vt 0.196326 0.992430
vt 0.190035 0.844792
vt 0.230580 0.047774
vt 0.255556 0.835685
vt 0.260908 0.961273
vt 0.268962 0.012243
vt 0.142309 0.172848
vt 0.311313 0.818335
vt 0.315201 0.909580
vt 0.104770 0.154600
vt 0.315201 0.706144
vt 0.055681 0.835605
vt 0.127778 0.653895
vt 0.115534 0.068405
vt 0.384497 0.103115
vt 0.445136 0.154600
vt 0.196327 0.663264
vt 0.132301 0.000000
vt 0.260908 0.681268
vt 0.000000 0.818210
vt 0.061973 0.654077
vt 0.274920 0.557004
vt 0.725885 0.388638
vt 0.844497 0.327374
vt 0.777291 0.450628
vt 0.067230 0.172848
vt 0.472667 0.000000
vt 0.527305 0.103115
vt 0.455901 0.068405
vt 0.904939 0.361088
vt 0.834275 0.490685
vt 0.044130 0.103115
vt 0.482675 0.172848
vt 0.145098 0.500296
vt 0.212799 0.517183
vt 0.726624 0.234607
vt 0.783054 0.283792
vt 0.752295 0.128228
vt 0.818386 0.137374
vt 0.505876 0.220622
vt 0.609329 0.012243
vt 0.631687 0.172848
vt 0.570947 0.047774
vt 0.886032 0.155250
vt 0.044030 0.220622
vt 0.571435 0.193986
vt 0.948612 0.180105
vt 0.680733 0.184635
vt 0.958465 0.381633
vt 1.000000 0.209508
vt 0.948612 0.016866
vt 1.000000 0.054259
vt 0.752295 0.032279
vt 0.818386 0.005311
vt 0.505876 0.279674
vt 0.680733 0.159276
vt 0.631687 0.327448
vt 0.886032 0.000000
vt 0.044030 0.279674
vt 0.571435 0.306310
vt 0.694229 0.128708
vt 0.000000 0.306310
vt 0.377174 0.517053
vt 0.630403 0.590716
vt 0.576109 0.539023
vt 0.609329 0.488053
vt 0.511528 0.507866
vt 0.442979 0.500296
vt 0.626514 0.681961
vt 0.472667 0.500296
vt 0.384497 0.397181
vt 0.783945 0.500296
vt 0.949670 0.781472
vt 0.005352 0.663792
vt 0.685089 0.310782
vt 0.680733 0.341020
vt 0.694229 0.078264
vn 0.2239 0.6892 -0.6892
vn 0.0508 -0.9864 -0.1562
vn 0.2781 -0.4361 -0.8559
vn 0.2781 0.4361 -0.8559
vn 0.0508 0.9864 -0.1562
vn 0.2239 -0.6892 -0.6892
vn 0.3056 0.1490 -0.9404
vn 0.1459 0.8815 -0.4491
vn 0.1459 -0.8815 -0.4491
vn 0.3056 -0.1490 -0.9404
vn 0.1329 -0.9864 -0.0966
vn 0.7280 -0.4361 -0.5290
vn 0.7280 0.4361 -0.5290
vn 0.1329 0.9864 -0.0966
vn 0.5862 -0.6892 -0.4259
vn 0.8000 0.1490 -0.5812
vn 0.3821 0.8815 -0.2776
vn 0.3821 -0.8815 -0.2776
vn 0.8000 -0.1490 -0.5812
vn 0.5862 0.6892 -0.4259
vn 0.9888 -0.1490 0.0000
vn 0.7246 0.6892 0.0000
vn 0.1643 -0.9864 0.0000
vn 0.8999 -0.4361 0.0000
vn 0.8999 0.4361 0.0000
vn 0.1643 0.9864 0.0000
vn 0.7246 -0.6892 0.0000
vn 0.9888 0.1490 0.0000
vn 0.4722 0.8815 0.0000
vn 0.4722 -0.8815 0.0000
vn 0.3821 0.8815 0.2776
vn 0.3821 -0.8815 0.2776
vn 0.8000 -0.1490 0.5812
vn 0.5862 0.6892 0.4259
vn 0.1329 -0.9864 0.0966
vn 0.7280 -0.4361 0.5290
vn 0.7280 0.4361 0.5290
vn 0.1329 0.9864 0.0966
vn 0.5862 -0.6892 0.4259
vn 0.8000 0.1490 0.5812
vn 0.3056 0.1490 0.9404
vn 0.1459 0.8815 0.4491
vn 0.1459 -0.8815 0.4491
vn 0.3056 -0.1490 0.9404
vn 0.2239 0.6892 0.6892
vn 0.0508 -0.9864 0.1562
vn 0.2781 -0.4361 0.8559
vn 0.2781 0.4361 0.8559
vn 0.0508 0.9864 0.1562
vn 0.2239 -0.6892 0.6892
vn -0.0508 0.9864 0.1562
vn -0.2239 -0.6892 0.6892
vn -0.3056 0.1490 0.9404
vn -0.1459 0.8815 0.4491
vn -0.1459 -0.8815 0.4491
vn -0.3056 -0.1490 0.9404
vn -0.2239 0.6892 0.6892
vn -0.0508 -0.9864 0.1562
vn -0.2781 -0.4361 0.8559
vn -0.2781 0.4361 0.8559
vn -0.7280 -0.4361 0.5290
vn -0.7280 0.4361 0.5290
vn -0.1329 0.9864 0.0966
vn -0.5862 -0.6892 0.4259
vn -0.8000 0.1490 0.5812
vn -0.3821 0.8815 0.2776
vn -0.3821 -0.8815 0.2776
vn -0.8000 -0.1490 0.5812
vn -0.5862 0.6892 0.4259
vn -0.1329 -0.9864 0.0966
vn -0.7246 0.6892 0.0000
vn -0.1643 -0.9864 -0.0000
vn -0.8999 -0.4361 0.0000
vn -0.8999 0.4361 0.0000
vn -0.1643 0.9864 -0.0000
vn -0.7246 -0.6892 0.0000
vn -0.9888 0.1490 0.0000
vn -0.4722 0.8815 0.0000
vn -0.4722 -0.8815 0.0000
vn -0.9888 -0.1490 0.0000
vn -0.8000 -0.1490 -0.5812
vn -0.5862 0.6892 -0.4259
vn -0.1329 -0.9864 -0.0966
vn -0.7280 -0.4361 -0.5290
vn -0.7280 0.4361 -0.5290
vn -0.1329 0.9864 -0.0966
vn -0.5862 -0.6892 -0.4259
vn -0.8000 0.1490 -0.5812
vn -0.3821 0.8815 -0.2776
vn -0.3821 -0.8815 -0.2776
vn -0.1459 0.8815 -0.4491
vn -0.1459 -0.8815 -0.4491
vn -0.3056 -0.1490 -0.9404
vn -0.2239 0.6892 -0.6892
vn -0.0508 -0.9864 -0.1562
vn -0.2781 -0.4361 -0.8559
vn -0.2781 0.4361 -0.8559
vn -0.0508 0.9864 -0.1562
vn -0.2239 -0.6892 -0.6892
vn -0.3056 0.1490 -0.9404
s off
f 3/1/1 9/2/1 10/3/1
f 7/4/2 6/5/2 16/6/2
f 5/7/3 13/8/3 14/9/3
f 3/1/4 11/10/4 90/11/4
f 1/12/5 53/13/5 8/14/5
f 5/15/6 15/16/6 92/17/6
f 90/11/7 12/18/7 91/19/7
f 1/12/8 9/20/8 2/21/8
f 6/5/9 15/16/9 16/6/9
f 4/22/10 12/18/10 13/8/10
f 7/4/11 16/6/11 25/23/11
f 13/24/12 23/25/12 14/26/12
f 11/10/13 19/27/13 20/28/13
f 8/14/14 53/13/14 17/29/14
f 14/26/15 24/30/15 15/31/15
f 11/10/16 21/32/16 12/18/16
f 8/14/17 18/33/17 9/20/17
f 15/16/18 25/23/18 16/6/18
f 13/24/19 21/34/19 22/35/19
f 9/20/20 19/36/20 10/37/20
f 22/35/21 30/38/21 31/39/21
f 18/33/22 28/40/22 19/36/22
f 7/4/23 25/23/23 34/41/23
f 22/35/24 32/42/24 23/25/24
f 19/36/25 29/43/25 20/44/25
f 17/29/26 53/13/26 26/45/26
f 23/25/27 33/46/27 24/30/27
f 20/47/28 30/38/28 21/34/28
f 17/29/29 27/48/29 18/33/29
f 25/49/30 33/46/30 34/50/30
f 26/45/31 36/51/31 27/48/31
f 33/46/32 43/52/32 34/50/32
f 31/39/33 39/53/33 40/54/33
f 28/40/34 36/51/34 37/55/34
f 7/4/35 34/41/35 43/56/35
f 31/39/36 41/57/36 32/42/36
f 28/40/37 38/58/37 29/43/37
f 26/45/38 53/13/38 35/59/38
f 32/42/39 42/60/39 33/46/39
f 30/38/40 38/61/40 39/53/40
f 38/62/41 48/63/41 39/64/41
f 35/59/42 45/65/42 36/51/42
f 42/66/43 52/67/43 43/56/43
f 40/68/44 48/63/44 49/69/44
f 37/55/45 45/65/45 46/70/45
f 7/4/46 43/56/46 52/67/46
f 40/68/47 50/71/47 41/72/47
f 37/55/48 47/73/48 38/58/48
f 35/59/49 53/13/49 44/74/49
f 41/72/50 51/75/50 42/76/50
f 44/74/51 53/13/51 54/77/51
f 50/71/52 61/78/52 51/75/52
f 47/79/53 58/80/53 48/63/53
f 44/74/54 55/81/54 45/65/54
f 51/82/55 62/83/55 52/67/55
f 49/69/56 58/80/56 59/84/56
f 46/70/57 55/81/57 56/85/57
f 7/4/58 52/67/58 62/83/58
f 49/69/59 60/86/59 50/71/59
f 46/87/60 57/88/60 47/79/60
f 59/84/61 69/89/61 60/86/61
f 56/90/62 66/91/62 57/92/62
f 54/77/63 53/13/63 63/93/63
f 60/94/64 70/95/64 61/96/64
f 57/92/65 67/97/65 58/98/65
f 54/77/66 64/99/66 55/81/66
f 61/96/67 71/100/67 62/83/67
f 59/84/68 67/101/68 68/102/68
f 56/90/69 64/103/69 65/104/69
f 7/4/70 62/83/70 71/100/70
f 65/104/71 73/105/71 74/106/71
f 7/4/72 71/100/72 80/107/72
f 68/108/73 78/109/73 69/110/73
f 65/104/74 75/111/74 66/91/74
f 63/93/75 53/13/75 72/112/75
f 69/110/76 79/113/76 70/95/76
f 66/91/77 76/114/77 67/97/77
f 63/115/78 73/105/78 64/103/78
f 70/95/79 80/107/79 71/100/79
f 68/116/80 76/114/80 77/117/80
f 77/117/81 85/118/81 86/119/81
f 74/106/82 82/120/82 83/121/82
f 7/4/83 80/107/83 89/122/83
f 77/123/84 87/124/84 78/109/84
f 74/106/85 84/125/85 75/111/85
f 72/112/86 53/13/86 81/126/86
f 78/109/87 88/127/87 79/113/87
f 76/114/88 84/125/88 85/118/88
f 72/128/89 82/120/89 73/105/89
f 80/107/90 88/127/90 89/122/90
f 81/126/91 2/21/91 82/129/91
f 89/122/92 92/17/92 6/5/92
f 86/130/93 91/19/93 4/22/93
f 82/131/94 3/1/94 83/132/94
f 7/4/95 89/122/95 6/5/95
f 87/124/96 4/133/96 5/15/96
f 83/132/97 90/11/97 84/134/97
f 81/126/98 53/13/98 1/12/98
f 87/124/99 92/17/99 88/127/99
f 84/134/100 91/19/100 85/135/100
f 3/1/1 2/136/1 9/2/1
f 5/7/3 4/22/3 13/8/3
f 3/1/4 10/3/4 11/10/4
f 5/15/6 14/137/6 15/16/6
f 90/11/7 11/10/7 12/18/7
f 1/12/8 8/14/8 9/20/8
f 6/5/9 92/17/9 15/16/9
f 4/22/10 91/19/10 12/18/10
f 13/24/12 22/35/12 23/25/12
f 11/10/13 10/3/13 19/27/13
f 14/26/15 23/25/15 24/30/15
f 11/10/16 20/28/16 21/32/16
f 8/14/17 17/29/17 18/33/17
f 15/16/18 24/138/18 25/23/18
f 13/24/19 12/139/19 21/34/19
f 9/20/20 18/33/20 19/36/20
f 22/35/21 21/34/21 30/38/21
f 18/33/22 27/48/22 28/40/22
f 22/35/24 31/39/24 32/42/24
f 19/36/25 28/40/25 29/43/25
f 23/25/27 32/42/27 33/46/27
f 20/47/28 29/140/28 30/38/28
f 17/29/29 26/45/29 27/48/29
f 25/49/30 24/30/30 33/46/30
f 26/45/31 35/59/31 36/51/31
f 33/46/32 42/60/32 43/52/32
f 31/39/33 30/38/33 39/53/33
f 28/40/34 27/48/34 36/51/34
f 31/39/36 40/54/36 41/57/36
f 28/40/37 37/55/37 38/58/37
f 32/42/39 41/57/39 42/60/39
f 30/38/40 29/140/40 38/61/40
f 38/62/41 47/79/41 48/63/41
f 35/59/42 44/74/42 45/65/42
f 42/66/43 51/82/43 52/67/43
f 40/68/44 39/64/44 48/63/44
f 37/55/45 36/51/45 45/65/45
f 40/68/47 49/69/47 50/71/47
f 37/55/48 46/70/48 47/73/48
f 41/72/50 50/71/50 51/75/50
f 50/71/52 60/86/52 61/78/52
f 47/79/53 57/88/53 58/80/53
f 44/74/54 54/77/54 55/81/54
f 51/82/55 61/96/55 62/83/55
f 49/69/56 48/63/56 58/80/56
f 46/70/57 45/65/57 55/81/57
f 49/69/59 59/84/59 60/86/59
f 46/87/60 56/141/60 57/88/60
f 59/84/61 68/102/61 69/89/61
f 56/90/62 65/104/62 66/91/62
f 60/94/64 69/110/64 70/95/64
f 57/92/65 66/91/65 67/97/65
f 54/77/66 63/93/66 64/99/66
f 61/96/67 70/95/67 71/100/67
f 59/84/68 58/80/68 67/101/68
f 56/90/69 55/142/69 64/103/69
f 65/104/71 64/103/71 73/105/71
f 68/108/73 77/123/73 78/109/73
f 65/104/74 74/106/74 75/111/74
f 69/110/76 78/109/76 79/113/76
f 66/91/77 75/111/77 76/114/77
f 63/115/78 72/128/78 73/105/78
f 70/95/79 79/113/79 80/107/79
f 68/116/80 67/97/80 76/114/80
f 77/117/81 76/114/81 85/118/81
f 74/106/82 73/105/82 82/120/82
f 77/123/84 86/143/84 87/124/84
f 74/106/85 83/121/85 84/125/85
f 78/109/87 87/124/87 88/127/87
f 76/114/88 75/111/88 84/125/88
f 72/128/89 81/144/89 82/120/89
f 80/107/90 79/113/90 88/127/90
f 81/126/91 1/12/91 2/21/91
f 89/122/92 88/127/92 92/17/92
f 86/130/93 85/135/93 91/19/93
f 82/131/94 2/136/94 3/1/94
f 87/124/96 86/143/96 4/133/96
f 83/132/97 3/1/97 90/11/97
f 87/124/99 5/15/99 92/17/99
f 84/134/100 90/11/100 91/19/100
